<?xml version="1.0" standalone="no"?>
<svg
  width="600"
  height="600"
  viewBox="0 0 600 600"
  xmlns="http://www.w3.org/2000/svg"
>
  <g transform="translate(300,300)">
    <path d="M111,-170.4C139.7,-131.9,155.9,-93.9,164.2,-56.2C172.5,-18.5,172.8,18.9,171.7,66.2C170.6,113.5,168.2,170.8,139.4,206.8C110.5,242.8,55.3,257.4,-0.6,258.2C-56.4,259,-112.9,246,-155.5,214.5C-198.1,183,-227,133.1,-233.8,82.9C-240.6,32.7,-225.4,-17.8,-204.2,-61.2C-183,-104.6,-155.9,-140.9,-120.8,-177.3C-85.8,-213.8,-42.9,-250.4,-0.9,-249.2C41.1,-248,82.3,-208.9,111,-170.4Z" fill="#fcb900" />
  </g>
</svg>
  