<?xml version="1.0" encoding="UTF-8"?>
<svg width="275px" height="289px" viewBox="0 0 275 289" version="1.1" xmlns="http://www.w3.org/2000/svg" xmlns:xlink="http://www.w3.org/1999/xlink">
    <!-- Generator: Sketch 62 (91390) - https://sketch.com -->
    <title>blobb</title>
    <desc>Created with Sketch.</desc>
    <g id="Page-1" stroke="none" stroke-width="1" fill="none" fill-rule="evenodd">
        <g id="blobb">
            <g id="blob-shape" fill="#FCB900" fill-rule="nonzero">
                <path d="M239.450481,48.2564878 C255.786085,70.1822072 265.00688,91.8231771 269.731114,113.293297 C274.455348,134.763417 274.626103,156.062688 274,183 C273.373897,209.937312 272.007853,242.569617 255.61533,263.071588 C239.165888,283.57356 165.485394,288.524657 133.667962,288.980256 C101.907448,289.435855 69.7485054,282.032366 45.5012315,264.093141 C21.2539576,246.153916 4.80451596,217.735905 0.934059097,189.147045 C-2.93639777,160.558185 5.71521169,131.798475 17.7819301,107.08221 C29.8486486,82.365944 45.2735576,61.6931228 65.2519452,40.9633517 C85.1734144,20.1766307 109.591444,-0.667040275 133.497207,0.0163587728 C157.40297,0.69975782 223.114876,26.3307684 239.450481,48.2564878 Z" id="Path"></path>
            </g>
            <g id="face" transform="translate(75.284180, 99.000000)">
                <path d="M6.96706573,5.47692589 C7.80213979,3.32309626 10.2818476,2.15385105 12.3330579,1.09136957 C25.549761,-5.75458963 17.5213507,22.0443303 9.52135069,17.0443303 C1.52135069,12.0443303 5.61920966,8.95332693 6.96706573,5.47692589 Z" id="Path-2" fill="#000000"></path>
                <path d="M0,46.5019531 C18.6660551,71.8351188 66.6367807,72.1325487 82.1337891,42.9042969" id="Path-3" stroke="#EB5656" stroke-width="4" stroke-linecap="round"></path>
                <path d="M76.7158203,16 C73.9047083,-5.81693659 92.9704926,5.18274319 92.7131995,13.4184356 C92.4946703,20.4133325 80.7942441,23.4756057 76.9853045,18.6742804 L76.7158203,16 Z" id="Path-4" fill="#000000"></path>
            </g>
        </g>
    </g>
</svg>